<?xml version="1.0" standalone="no"?>
<!DOCTYPE svg PUBLIC "-//W3C//DTD SVG 20010904//EN"
 "http://www.w3.org/TR/2001/REC-SVG-20010904/DTD/svg10.dtd">
<svg version="1.0" xmlns="http://www.w3.org/2000/svg"
 width="500.000000pt" height="500.000000pt" viewBox="0 0 500.000000 500.000000"
 preserveAspectRatio="xMidYMid meet">
<metadata>
Created by potrace 1.16, written by Peter Selinger 2001-2019
</metadata>
<g transform="translate(0.000000,500.000000) scale(0.100000,-0.100000)"
fill="#000000" stroke="none">
<path d="M0 2500 l0 -2500 2500 0 2500 0 0 2500 0 2500 -2500 0 -2500 0 0
-2500z m2729 1519 c171 -40 368 -159 486 -293 149 -171 235 -398 235 -626 0
-110 -14 -194 -51 -306 -30 -89 -86 -201 -95 -191 -3 3 10 36 29 73 119 238
132 516 37 762 -61 157 -187 319 -326 418 -131 94 -308 158 -467 171 -43 3
-80 11 -84 16 -9 15 135 0 236 -24z m55 -588 c3 -24 6 -60 5 -80 l0 -36 -15
39 c-23 64 -26 66 -135 66 l-99 0 0 -249 0 -250 26 -20 c15 -12 40 -21 55 -21
16 0 29 -4 29 -10 0 -6 -57 -10 -150 -10 -93 0 -150 4 -150 10 0 6 13 10 29
10 15 0 40 9 55 21 l26 20 0 250 0 249 -100 0 c-109 0 -119 -5 -135 -72 -12
-49 -21 -30 -14 30 4 31 8 66 8 77 1 20 8 20 280 20 l279 0 6 -44z m-1211
-408 c10 -145 47 -261 126 -397 53 -91 176 -226 256 -281 55 -38 79 -73 28
-40 -245 158 -404 427 -429 728 -4 49 -3 77 3 77 6 0 13 -39 16 -87z m1508
-369 c120 -88 245 -253 306 -406 31 -77 63 -225 63 -297 0 -77 -11 -56 -20 37
-13 121 -37 207 -90 318 -60 123 -145 233 -245 315 -41 34 -75 63 -75 65 0 10
16 1 61 -32z m-258 -239 c-3 -10 -615 -20 -641 -10 -7 3 -10 9 -7 15 9 14 651
9 648 -5z m-1157 -97 c-73 -147 -89 -224 -90 -413 -1 -138 2 -171 22 -239 50
-174 130 -307 257 -431 150 -146 325 -228 555 -260 l105 -15 -100 4 c-331 14
-670 264 -795 587 -54 140 -64 200 -63 359 0 115 5 162 22 225 22 82 117 292
127 282 4 -3 -14 -48 -40 -99z m1118 -257 c3 -24 6 -60 5 -80 l0 -36 -15 39
c-23 64 -26 66 -135 66 l-99 0 0 -249 0 -250 26 -20 c15 -12 40 -21 55 -21 16
0 29 -4 29 -10 0 -6 -57 -10 -150 -10 -93 0 -150 4 -150 10 0 6 13 10 29 10
15 0 40 9 55 21 l26 20 0 250 0 249 -100 0 c-109 0 -119 -5 -135 -72 -12 -49
-21 -30 -14 30 4 31 8 66 8 77 1 20 8 20 280 20 l279 0 6 -44z"/>
</g>
</svg>
